<svg width="16" height="14" viewBox="0 0 16 14" fill="none" xmlns="http://www.w3.org/2000/svg">
<g id="Arrow - Right">
<path id="Arrow - Right_2" fill-rule="evenodd" clip-rule="evenodd" d="M1.0893 6.31429C0.756504 6.36011 0.5 6.64961 0.5 6.99991C0.5 7.38205 0.80526 7.69184 1.18182 7.69184L13.1666 7.69184L8.83724 12.0678L8.77107 12.1453C8.57247 12.4157 8.59369 12.8002 8.83525 13.0463C9.10096 13.3171 9.53267 13.318 9.79948 13.0483L15.2897 7.49966C15.3225 7.46786 15.3521 7.43279 15.378 7.39496C15.5639 7.12475 15.5377 6.74993 15.2994 6.50922L9.79944 0.951611L9.72283 0.884782C9.45548 0.684378 9.07675 0.707538 8.83521 0.953718C8.56952 1.22452 8.57045 1.66262 8.83729 1.93226L13.1677 6.30797L1.18182 6.30797L1.0893 6.31429Z" fill="#F4F6FA"/>
</g>
</svg>
