<svg width="30" height="30" viewBox="0 0 30 30" fill="none" xmlns="http://www.w3.org/2000/svg">
<g id="Iconly/Light-Outline/Filter">
<g id="Group 10">
<path id="Fill 1" fill-rule="evenodd" clip-rule="evenodd" d="M23.2383 17.3999L23.2383 25.2761C23.2383 25.7936 22.8183 26.2136 22.3008 26.2136C21.7833 26.2136 21.3633 25.7936 21.3633 25.2761L21.3633 17.3999C21.3633 16.8824 21.7833 16.4624 22.3008 16.4624C22.8183 16.4624 23.2383 16.8824 23.2383 17.3999Z" fill="#127682"/>
<path id="Fill 3" fill-rule="evenodd" clip-rule="evenodd" d="M11.125 6.01123L11.125 13.8862C11.125 14.4037 10.705 14.8237 10.1875 14.8237C9.67 14.8237 9.25 14.4037 9.25 13.8862L9.25 6.01123C9.25 5.49373 9.67 5.07373 10.1875 5.07373C10.705 5.07373 11.125 5.49373 11.125 6.01123Z" fill="#127682"/>
<g id="Group 7">
<mask id="mask0_15_1381" style="mask-type:luminance" maskUnits="userSpaceOnUse" x="6" y="18" width="8" height="9">
<path id="Clip 6" fill-rule="evenodd" clip-rule="evenodd" d="M6.25 26.25L6.25 18.4678L13.9895 18.4677L13.9895 26.25L6.25 26.25Z" fill="white"/>
</mask>
<g mask="url(#mask0_15_1381)">
<path id="Fill 5" fill-rule="evenodd" clip-rule="evenodd" d="M8.125 22.3589C8.125 23.4702 9.02 24.3752 10.1212 24.3752C11.2212 24.3752 12.115 23.4702 12.115 22.3589C12.115 21.2464 11.2212 20.3427 10.1212 20.3427C9.02 20.3427 8.125 21.2464 8.125 22.3589ZM13.99 22.359C13.99 24.504 12.255 26.2502 10.1212 26.2502C7.9875 26.2502 6.25 24.504 6.25 22.359C6.25 20.2127 7.9875 18.4677 10.1212 18.4677C12.255 18.4677 13.99 20.2127 13.99 22.359Z" fill="#127682"/>
</g>
</g>
<path id="Fill 8" fill-rule="evenodd" clip-rule="evenodd" d="M20.2578 8.26546C20.2578 9.37796 21.1528 10.283 22.2528 10.283C23.3541 10.283 24.2478 9.37796 24.2478 8.26546C24.2478 7.15421 23.3541 6.25046 22.2528 6.25046C21.1528 6.25046 20.2578 7.15421 20.2578 8.26546ZM26.1228 8.26546C26.1228 10.4117 24.3866 12.158 22.2528 12.158C20.1191 12.158 18.3828 10.4117 18.3828 8.26546C18.3828 6.12046 20.1191 4.37546 22.2528 4.37546C24.3866 4.37546 26.1228 6.12046 26.1228 8.26546Z" fill="#127682"/>
</g>
</g>
</svg>
