<svg width="36" height="42" viewBox="0 0 36 42" fill="none" xmlns="http://www.w3.org/2000/svg">
<g id="Lock">
<path id="Fill 1" fill-rule="evenodd" clip-rule="evenodd" d="M9.18508 14.1538H26.8151C31.7264 14.1538 35.7084 18.048 35.7084 22.851V33.1361C35.7084 37.9391 31.7264 41.8333 26.8151 41.8333H9.18508C4.27374 41.8333 0.291748 37.9391 0.291748 33.1361V22.851C0.291748 18.048 4.27374 14.1538 9.18508 14.1538ZM17.9895 32.1031C19.0268 32.1031 19.8524 31.2956 19.8524 30.2812V25.6852C19.8524 24.6915 19.0268 23.8841 17.9895 23.8841C16.9734 23.8841 16.1477 24.6915 16.1477 25.6852V30.2812C16.1477 31.2956 16.9734 32.1031 17.9895 32.1031Z" fill="#7B61FF"/>
<path id="Fill 4" opacity="0.4" d="M29.5059 11.4082V14.4722C28.765 14.2652 27.9817 14.1616 27.1773 14.1616H25.8013V11.4082C25.8013 7.20554 22.3083 3.7896 18.0109 3.7896C13.7134 3.7896 10.2205 7.18484 10.1993 11.3668V14.1616H8.84445C8.01884 14.1616 7.23556 14.2652 6.49463 14.4929V11.4082C6.5158 5.19738 11.66 0.166626 17.9685 0.166626C24.3617 0.166626 29.5059 5.19738 29.5059 11.4082Z" fill="#7B61FF"/>
</g>
</svg>
